<?xml version="1.0" standalone="no"?>
<!DOCTYPE svg PUBLIC "-//W3C//DTD SVG 20010904//EN"
 "http://www.w3.org/TR/2001/REC-SVG-20010904/DTD/svg10.dtd">
<svg version="1.0" xmlns="http://www.w3.org/2000/svg"
 width="448.000000pt" height="448.000000pt" viewBox="0 0 448.000000 448.000000"
 preserveAspectRatio="xMidYMid meet">
<metadata>
Created by potrace 1.11, written by Peter Selinger 2001-2013
</metadata>
<g transform="translate(0.000000,448.000000) scale(0.100000,-0.100000)"
fill="#000000" stroke="none">
<path d="M2025 4379 c-549 -57 -1034 -290 -1404 -675 -318 -329 -519 -739
-582 -1184 -17 -123 -17 -447 0 -570 151 -1069 1096 -1870 2206 -1870 942 0
1788 582 2101 1446 43 121 87 296 105 424 17 123 17 447 0 570 -152 1077
-1110 1881 -2225 1869 -66 -1 -157 -5 -201 -10z m605 -876 l378 -117 6 -44
c11 -80 6 -345 -8 -453 -32 -233 -102 -430 -216 -600 -101 -150 -280 -292
-462 -364 l-82 -33 -50 18 c-148 51 -288 142 -403 263 -86 90 -123 144 -178
256 -104 210 -145 416 -145 722 0 113 2 213 5 221 4 9 144 58 378 131 205 64
378 116 386 117 7 0 183 -53 391 -117z m-1326 -1767 c40 -17 66 -67 66 -130
l0 -46 -55 0 -55 0 0 44 c0 47 -17 70 -47 64 -24 -5 -31 -41 -31 -183 0 -156
5 -179 40 -183 29 -4 35 7 40 78 3 35 3 35 56 38 l52 3 0 -51 c0 -105 -45
-151 -146 -151 -63 0 -99 15 -128 54 -19 26 -21 45 -24 192 -3 147 -2 168 17
209 14 33 30 51 53 61 42 18 119 19 162 1z m359 0 c66 -27 72 -49 72 -253 0
-168 -2 -184 -21 -210 -30 -40 -66 -55 -136 -54 -71 0 -103 17 -131 72 -15 30
-17 56 -15 204 3 190 10 214 71 240 41 18 119 19 160 1z m760 0 c66 -27 72
-49 72 -253 0 -168 -2 -184 -21 -210 -30 -40 -66 -55 -136 -54 -71 0 -103 17
-131 72 -15 30 -17 56 -15 204 3 190 10 214 71 240 41 18 119 19 160 1z m-366
-15 c52 -24 66 -51 66 -121 0 -58 -14 -97 -43 -117 -17 -12 -15 -20 16 -130
19 -64 34 -121 34 -125 0 -4 -26 -8 -58 -8 l-58 0 -28 115 c-19 79 -32 115
-42 115 -11 0 -14 -23 -14 -115 l0 -115 -60 0 -60 0 0 260 0 260 103 0 c78 0
112 -5 144 -19z m648 -106 l50 -120 3 123 3 122 44 0 45 0 0 -260 0 -260 -38
0 -38 0 -50 128 -49 127 -3 -127 -3 -128 -49 0 -50 0 0 261 0 260 42 -3 42 -3
51 -120z m455 85 l0 -40 -55 0 -55 0 0 -65 0 -65 45 0 45 0 0 -40 0 -40 -45 0
-45 0 0 -75 0 -74 58 -3 57 -3 3 -37 3 -38 -120 0 -121 0 0 260 0 260 115 0
115 0 0 -40z m170 -180 l0 -220 60 0 60 0 0 -40 0 -40 -115 0 -115 0 0 260 0
260 55 0 55 0 0 -220z m-2127 -599 c13 -13 13 -69 0 -82 -5 -5 -26 -12 -46
-16 l-37 -6 0 63 0 63 37 -6 c20 -4 41 -11 46 -16z m100 12 c-25 -3 -33 -9
-33 -24 0 -14 7 -19 28 -20 l27 -2 -27 -4 c-22 -3 -28 -10 -28 -28 0 -19 6
-24 33 -28 31 -4 31 -4 -5 -5 l-38 -2 0 60 0 60 38 -2 c36 -1 36 -1 5 -5z
m127 -4 c12 -8 12 -10 -5 -8 -54 4 -61 -12 -15 -36 31 -16 40 -49 16 -58 -18
-7 -56 3 -56 15 0 5 7 5 18 0 19 -10 42 -5 42 9 0 4 -13 15 -30 24 -34 17 -39
39 -12 54 21 13 24 13 42 0z m126 -45 c14 -31 23 -59 20 -62 -3 -3 -8 3 -12
12 -8 21 -74 23 -74 1 0 -8 -4 -15 -9 -15 -6 0 -3 17 6 38 8 20 19 47 24 60 5
12 11 22 14 22 3 0 17 -25 31 -56z m125 46 c21 -12 25 -40 8 -57 -8 -8 -8 -17
0 -34 l12 -24 -17 23 c-9 12 -25 22 -35 22 -10 0 -19 -9 -22 -22 -2 -13 -5 5
-6 40 -1 56 1 62 20 62 11 0 29 -5 40 -10z m130 0 c21 -12 25 -40 8 -57 -8 -8
-8 -17 0 -32 7 -12 8 -21 2 -21 -5 0 -13 9 -16 20 -9 28 -42 26 -48 -2 -2 -13
-5 5 -6 40 -1 56 1 62 20 62 11 0 29 -5 40 -10z m137 -6 c49 -34 6 -123 -47
-94 -46 24 -47 74 -3 99 23 14 24 14 50 -5z m110 -97 c25 -4 24 -4 -5 -6 l-33
-1 2 63 2 62 3 -57 c4 -53 6 -57 31 -61z m100 0 c25 -4 24 -4 -5 -6 l-33 -1 2
63 2 62 3 -57 c4 -53 6 -57 31 -61z m130 46 c11 -29 17 -53 11 -53 -5 0 -9 7
-9 15 0 22 -59 20 -77 -2 -12 -16 19 76 34 100 8 13 17 -1 41 -60z m167 57
c17 -7 15 -9 -12 -9 -41 -1 -42 -16 -3 -36 17 -9 30 -22 30 -30 0 -20 -32 -35
-58 -28 -33 8 -26 20 8 15 22 -3 30 0 30 11 0 9 -9 18 -19 22 -33 10 -44 31
-26 49 18 18 22 18 50 6z m143 -13 c25 -19 9 -87 -21 -87 -5 0 -1 7 7 16 27
26 18 64 -17 77 -18 7 -57 -23 -57 -43 0 -6 12 -22 26 -35 23 -21 23 -23 4
-18 -45 12 -51 86 -7 102 23 9 43 5 65 -12z m97 14 c-21 -4 -30 -12 -30 -26 0
-14 9 -22 30 -26 l30 -7 -32 -1 c-27 -1 -32 -5 -36 -28 -2 -16 -5 0 -6 35 l-1
62 38 -1 c36 -1 36 -2 7 -8z m120 0 c-15 -6 -21 -20 -26 -62 l-6 -54 -1 57
c-2 45 -6 57 -19 61 -10 3 2 5 27 5 31 0 39 -2 25 -7z m65 -51 c11 -38 14 -42
21 -25 5 13 8 15 8 5 1 -17 -16 -47 -22 -40 -2 3 -9 25 -16 49 -7 23 -15 50
-18 60 -4 10 -3 13 4 6 5 -5 15 -30 23 -55z m71 8 l16 -53 13 48 c7 26 16 49
20 52 4 3 0 -21 -9 -53 -19 -64 -32 -69 -44 -20 -10 40 -27 60 -27 33 0 -10
-2 -16 -5 -13 -7 7 5 58 14 58 3 0 13 -24 22 -52z m158 1 c22 -53 28 -87 10
-56 -6 10 -22 17 -39 17 -17 0 -34 -7 -40 -17 -10 -16 -11 -16 -5 2 13 42 40
105 46 105 4 0 16 -23 28 -51z m93 40 c-30 -11 -27 -53 4 -57 29 -4 51 23 34
43 -7 9 -8 15 -2 15 17 0 22 -29 10 -55 -8 -19 -8 -28 2 -40 8 -9 8 -15 2 -15
-6 0 -14 9 -17 20 -9 29 -52 27 -58 -2 -2 -13 -5 5 -6 40 -1 61 -1 62 27 61
27 0 27 0 4 -10z m143 2 c-17 -3 -31 -14 -33 -24 -3 -13 4 -17 30 -18 l33 -1
-30 -7 c-45 -9 -41 -44 5 -52 l35 -6 -42 -2 -43 -1 0 60 0 60 38 -1 c36 -1 36
-2 7 -8z"/>
<path d="M2161 3284 c-17 -14 -31 -30 -31 -36 0 -5 -16 -24 -35 -42 -36 -34
-47 -79 -22 -90 38 -17 -81 10 -156 36 -97 32 -120 30 -142 -12 -21 -40 -19
-78 23 -470 l37 -345 27 -9 c32 -11 70 10 98 56 10 17 32 37 49 44 16 7 36 25
44 41 18 34 97 118 97 103 0 -21 -39 -86 -89 -148 -28 -35 -51 -72 -51 -82 0
-23 22 -46 53 -56 12 -4 28 -16 36 -26 9 -14 23 -19 50 -17 20 2 42 -1 49 -5
17 -10 77 -10 94 0 7 4 27 7 45 5 22 -2 37 4 50 18 9 12 25 21 34 21 19 0 59
45 59 65 0 7 -19 37 -43 67 -65 81 -85 111 -92 144 l-7 29 21 -32 c11 -18 25
-33 30 -33 6 0 24 -20 40 -44 18 -25 43 -48 61 -54 16 -6 30 -17 30 -24 1 -36
68 -83 105 -74 30 8 27 -9 71 414 31 298 35 359 25 393 -19 64 -43 69 -154 32
-51 -17 -112 -33 -136 -35 -41 -3 -46 -1 -52 22 -4 14 -7 46 -8 72 -1 39 -6
50 -32 72 -25 22 -41 26 -89 26 -48 0 -64 -4 -89 -26z m142 -15 c30 -16 37
-28 37 -69 0 -19 3 -52 6 -72 6 -33 10 -37 44 -43 43 -7 150 15 217 46 86 39
100 4 78 -195 -8 -76 -15 -143 -15 -148 0 -18 -40 14 -56 44 -14 27 -16 50
-10 130 6 104 4 110 -38 83 -13 -9 -52 -20 -87 -26 -71 -11 -82 -16 -73 -31 4
-5 20 -7 37 -4 l30 6 -7 -62 c-3 -35 -11 -103 -18 -152 -11 -89 -11 -89 -30
-67 -10 13 -19 37 -19 55 -1 17 -2 49 -3 70 0 22 -6 41 -13 43 -14 5 -20 -27
-29 -157 -5 -86 -10 -107 -25 -118 -42 -29 -10 -118 77 -215 38 -42 45 -77 15
-77 -12 0 -33 21 -57 60 -22 33 -45 60 -51 60 -21 0 -15 -17 23 -77 40 -62 41
-88 4 -88 -21 0 -26 6 -33 43 -11 56 -32 50 -32 -9 0 -42 -1 -44 -30 -44 -29
0 -30 2 -30 44 0 26 -5 46 -12 48 -11 4 -18 -12 -25 -62 -4 -24 -40 -32 -56
-12 -9 11 -4 27 28 76 43 67 48 81 26 81 -8 0 -31 -27 -51 -61 -29 -46 -42
-59 -58 -57 -34 5 -30 23 21 84 86 103 113 178 73 206 -17 12 -21 31 -27 119
-4 57 -10 114 -13 126 -12 45 -26 22 -32 -52 -3 -50 -10 -81 -21 -91 -18 -19
-14 -36 -41 174 l-14 102 28 0 c26 0 47 15 36 26 -3 3 -32 9 -65 14 -32 4 -73
15 -90 24 -17 9 -34 16 -37 16 -4 0 -4 -42 0 -94 8 -101 -4 -148 -44 -173 -18
-11 -20 -9 -25 30 -30 228 -30 293 -1 317 12 10 27 7 77 -14 119 -49 229 -61
248 -27 18 35 12 51 -20 51 -37 0 -31 24 11 46 17 8 29 23 29 34 0 42 90 66
143 39z m-354 -270 c28 -10 31 -15 31 -54 0 -32 -7 -52 -24 -72 l-24 -27 -6
64 c-4 36 -10 73 -12 83 -6 20 -6 20 35 6z m616 -73 c-7 -69 -9 -75 -26 -66
-21 12 -43 82 -34 110 5 16 54 43 63 34 2 -1 1 -36 -3 -78z m-569 -172 c-4
-17 -15 -39 -25 -48 -17 -16 -19 -15 -25 21 -11 68 -7 86 22 109 l27 22 3 -36
c2 -20 1 -50 -2 -68z m552 60 c7 -4 -11 -124 -19 -124 -23 0 -43 71 -40 144
l1 29 28 -24 c15 -13 28 -25 30 -25z m109 -132 c-3 -35 -8 -66 -11 -70 -12
-11 -57 44 -65 79 -4 19 -5 53 -3 76 l4 42 40 -32 39 -32 -4 -63z m-747 63 c0
-61 -19 -108 -50 -125 -22 -12 -25 -4 -33 82 -4 39 -1 48 13 53 10 3 25 14 35
25 28 31 35 24 35 -35z m125 -186 c6 -61 5 -68 -18 -95 -14 -16 -28 -27 -30
-24 -3 3 -11 51 -18 108 l-12 104 29 23 29 23 7 -36 c3 -21 9 -67 13 -103z
m493 95 c7 -4 -21 -214 -29 -214 -4 0 -17 12 -29 28 -23 28 -23 67 -3 195 l6
38 26 -23 c14 -13 27 -24 29 -24z m-418 -34 c0 -27 -7 -56 -17 -70 l-18 -25
-6 30 c-12 56 -9 98 8 117 22 25 33 8 33 -52z m301 51 c19 -17 20 -26 14 -82
l-7 -63 -19 23 c-14 17 -19 39 -19 82 0 32 2 59 5 59 3 0 15 -9 26 -19z m-477
-279 c-18 -34 -48 -57 -63 -48 -4 3 -11 45 -15 93 -4 48 -10 100 -13 115 -4
21 -2 28 10 28 9 0 28 13 44 29 l28 28 13 -106 c13 -98 13 -109 -4 -139z m687
196 l25 -16 -11 -111 c-7 -61 -15 -114 -18 -117 -10 -11 -47 17 -63 48 -16 31
-16 50 3 202 6 46 7 48 22 29 9 -11 28 -26 42 -35z"/>
<path d="M1555 1658 c-3 -8 -4 -90 -3 -183 l3 -170 30 0 30 0 0 180 0 180 -28
3 c-16 2 -29 -2 -32 -10z"/>
<path d="M2315 1658 c-3 -8 -4 -90 -3 -183 l3 -170 30 0 30 0 0 180 0 180 -28
3 c-16 2 -29 -2 -32 -10z"/>
<path d="M1930 1590 l0 -70 29 0 c36 0 61 31 61 77 0 39 -23 63 -61 63 l-29 0
0 -70z"/>
<path d="M1137 923 c-13 -13 -7 -83 7 -89 26 -10 56 15 56 46 0 36 -42 64 -63
43z"/>
<path d="M1512 895 c-16 -35 -16 -35 14 -35 22 0 24 3 19 23 -11 36 -21 39
-33 12z"/>
<path d="M1630 900 c0 -30 11 -37 44 -24 35 13 12 54 -30 54 -9 0 -14 -11 -14
-30z"/>
<path d="M1760 900 c0 -23 5 -30 19 -30 10 0 24 7 31 15 16 19 -3 45 -31 45
-14 0 -19 -7 -19 -30z"/>
<path d="M1898 919 c-25 -14 -24 -65 2 -79 14 -8 26 -8 40 0 27 14 27 65 1 80
-23 12 -22 12 -43 -1z"/>
<path d="M2241 897 c-15 -38 -15 -37 14 -37 28 0 30 5 10 40 l-13 25 -11 -28z"/>
<path d="M3072 903 c-17 -31 -15 -43 8 -43 21 0 24 12 11 45 -8 19 -8 19 -19
-2z"/>
</g>
</svg>
